<svg t="1690795909981" class="icon" viewBox="0 0 1024 1024" version="1.1"
    xmlns="http://www.w3.org/2000/svg" p-id="20657" width="200" height="200">
    <path
        d="M955.995 345.578c-20.828-50.332-63.044-104.67-96.183-121.834 26.973 53.096 42.574 106.352 48.54 146.088v0.98c45.25 123.138 20.588 248.356-14.924 324.864-54.944 118.368-187.958 239.7-396.188 233.794-224.791-6.412-422.966-174.068-459.974-393.48-6.744-34.63 0-52.196 3.391-80.296-4.13 21.652-5.705 27.92-7.76 66.416v2.462c0 265.82 214.674 481.326 479.465 481.326 237.159 0 434.057-172.846 472.623-399.89 0.798-6.148 1.457-12.356 2.175-18.566 9.476-82.558-1.117-169.32-31.163-241.864z"
        fill="#E50080" p-id="20658"></path>
    <path
        d="M723.86 405.794c1.06 0.742 2 1.484 3 2.224a261.352 260.988 90 0 0-44.64-58.322C532.812 200.08 643.056 25.274 661.636 16.38l0.2-0.26C541.092 86.94 500.132 217.948 496.372 283.5c5.6-0.38 11.18-0.86 16.88-0.86 90.102 0 168.584 49.63 210.606 123.154z"
        fill="#FFB724" p-id="20659"></path>
    <path
        d="M513.554 435.678c-0.78 12.016-43.02 53.276-57.8 53.276-136.686 0-158.866 82.798-158.866 82.798 6 69.74 54.52 127.16 113.222 157.544 2.68 1.38 5.38 2.624 8 3.866 4.7 2.002 9.42 4.004 14.12 5.788a214.064 213.766 90 0 0 62.544 12.016c239.566 11.256 286.008-286.848 113.102-373.412 44.26-7.71 90.224 10.136 115.884 28.18-42-73.524-120.504-123.154-210.606-123.154-5.7 0-11.28 0.48-16.88 0.86a240.882 240.546 90 0 0-132.264 51.114c7.34 6.228 15.62 14.52 33.04 31.704 32.68 32.286 116.324 65.514 116.504 69.42z"
        fill="#9755FC" p-id="20660"></path>
    <path
        d="M341.668 318.55c3.9 2.524 7.1 4.648 10 6.59a223.098 222.786 90 0 1-1.34-117.648c-49.38 22.532-87.78 58.084-115.702 89.548 2.26-0.06 71.98-1.32 107.042 21.51z"
        fill="#FF9800" p-id="20661"></path>
    <path
        d="M36.44 539.646c37.1 219.412 235.766 387.07 461.274 393.48 208.746 5.908 342.01-115.424 397.17-233.794 35.6-76.528 60.322-201.726 14.96-324.86v-0.922c0 0.12 0 0.28 0.1 0.8 17.04 111.5-39.58 219.512-128.102 292.556a14.62 14.6 90 0 0-0.26 0.62c-172.506 140.66-337.57 84.862-370.992 62.09a283.16 283.16 0 0 1-6.98-3.484c-100.582-48.07-142.124-139.9-133.224-218.592-84.9 0-113.862-71.742-113.862-71.742s76.24-54.438 176.724-7.09c93.064 43.862 180.466 7.11 180.466 7.09-0.18-3.906-83.822-37.234-116.444-69.42-17.42-17.184-25.7-25.476-33.04-31.704a142.422 142.224 90 0 0-12.44-9.414c-2.86-2.002-6-4.006-10-6.59-35.062-22.832-104.784-21.57-107.084-21.51h-0.22c-19.06-24.174-17.72-103.908-16.64-120.552-0.22-1.04-14.2 7.272-16 8.532a349.98 349.49 90 0 0-46.982 40.3 420.96 420.372 90 0 0-44.88 53.894A406.3 405.732 90 0 0 45.48 425.182c-0.38 0.92-17.48 75.688-9.04 114.464z"
        fill="#EF5350" p-id="20662"></path>
    <path
        d="M682.22 349.696a261.352 260.988 90 0 1 44.64 58.322 92.852 92.722 90 0 1 7.2 6.008c108.964 100.464 51.96 242.686 47.62 252.9 88.524-73.044 145.146-181.058 128.106-292.556C855.444 238.616 763.282 183.9 688.018 64.79c-3.82-6.01-7.62-12.018-11.34-18.446a139.52 139.52 0 0 1-5.28-10.016 87.584 87.462 90 0 1-7.18-18.966 1.26 1.26 0 0 0-1.08-1.302 1.722 1.72 90 0 0-0.9 0 0.94 0.94 0 0 0-0.22 0.14c-0.12 0-0.24 0.14-0.36 0.18-18.6 8.894-128.844 183.702 20.56 333.316z"
        fill="#FFD83C" p-id="20663"></path>
    <path
        d="M734.02 413.926a92.852 92.722 90 0 0-7.2-6.008c-0.98-0.74-2-1.482-3-2.224-25.66-18.024-71.622-35.89-115.884-28.18C780.822 464.078 734.4 762.182 494.834 750.926a214.064 213.766 90 0 1-62.542-12.016c-4.7-1.764-9.42-3.706-14.12-5.79-2.72-1.24-5.42-2.482-8-3.864l0.32 0.2c33.42 22.832 198.484 78.632 370.99-62.088 0 0 0.1-0.26 0.26-0.62 4.28-10.036 61.28-152.26-47.72-252.82z"
        fill="#FF9800" p-id="20664"></path>
    <path
        d="M296.888 571.752s22.18-82.8 158.864-82.8c14.78 0 57.02-41.298 57.8-53.274 0.78-11.978-87.4 36.772-180.464-7.09-100.482-47.348-176.724 7.09-176.724 7.09s28.96 71.74 113.862 71.74c-8.9 78.694 32.64 170.444 133.224 218.592 2.24 1.062 4.36 2.244 6.66 3.286-58.7-30.324-107.162-87.806-113.222-157.544z"
        fill="#FFD83C" p-id="20665"></path>
</svg>