<svg width="1552" height="728" viewBox="0 0 1552 728" fill="none" xmlns="http://www.w3.org/2000/svg">
    <path
        d="M955.3 509.2C981.589 509.2 1002.9 487.889 1002.9 461.6C1002.9 435.311 981.589 414 955.3 414C929.011 414 907.7 435.311 907.7 461.6C907.7 487.889 929.011 509.2 955.3 509.2Z"
        fill="#DEF1FF" />
    <path opacity="0.5"
        d="M1000 461.6C995.4 475 987.1 485 974.6 491.5C965.6 496.2 954.8 500 944.8 498.7C934.8 497.5 926 493.6 917 489.3C917.1 489.6 917.2 489.9 917.3 490.2C920.6 494.6 924.7 498.4 929.4 501.5C933.1 503.6 936.9 505.3 939.8 506.3C949 509.5 959.1 510 968.5 507.3C968.7 507.3 968.8 507.2 969 507.2C969.4 507.1 969.8 506.9 970.2 506.8C970.5 506.7 970.8 506.6 971.1 506.5C971.4 506.4 971.7 506.3 972 506.2C989.6 499.6 1002.2 483 1002.9 463.3C1001.6 462.6 1000.4 462 1000 461.6Z"
        fill="#ACDDFC" />
    <path
        d="M954.8 724.7C1014 724.7 1062 676.705 1062 617.5C1062 558.295 1014 510.3 954.8 510.3C895.595 510.3 847.6 558.295 847.6 617.5C847.6 676.705 895.595 724.7 954.8 724.7Z"
        fill="#D2F2FF" />
    <path
        d="M954.8 724.7C1014 724.7 1062 676.705 1062 617.5C1062 558.295 1014 510.3 954.8 510.3C895.595 510.3 847.6 558.295 847.6 617.5C847.6 676.705 895.595 724.7 954.8 724.7Z"
        fill="#D2F2FF" />
    <path opacity="0.5"
        d="M901.5 524.5H1008C1001.1 520.6 993.8 517.4 986.1 515H923.4C915.7 517.3 908.4 520.5 901.5 524.5Z"
        fill="#B9E1ED" />
    <rect x="979.71" y="508.276" width="82.3" height="23.8" transform="rotate(90 979.71 508.276)"
        fill="#AF1919" />
    <rect x="979.66" y="581.026" width="9.5" height="23.8" transform="rotate(90 979.66 581.026)"
        fill="#C44343" />
    <rect x="979.664" y="554.53" width="9.5" height="23.8" transform="rotate(90 979.664 554.53)"
        fill="#C44343" />
    <rect x="979.669" y="528.035" width="9.5" height="23.8" transform="rotate(90 979.669 528.035)"
        fill="#C44343" />
    <rect opacity="0.3" x="979.687" y="514.953" width="9.5" height="23.8"
        transform="rotate(90 979.687 514.953)" fill="#721919" />
    <path
        d="M944.3 448.2C945.404 448.2 946.3 447.305 946.3 446.2C946.3 445.095 945.404 444.2 944.3 444.2C943.195 444.2 942.3 445.095 942.3 446.2C942.3 447.305 943.195 448.2 944.3 448.2Z"
        fill="#7C3A3A" />
    <path
        d="M965.2 448.2C966.305 448.2 967.2 447.305 967.2 446.2C967.2 445.095 966.305 444.2 965.2 444.2C964.095 444.2 963.2 445.095 963.2 446.2C963.2 447.305 964.095 448.2 965.2 448.2Z"
        fill="#7C3A3A" />
    <path
        d="M931.9 473.2C932.507 473.2 933 472.708 933 472.1C933 471.492 932.507 471 931.9 471C931.292 471 930.8 471.492 930.8 472.1C930.8 472.708 931.292 473.2 931.9 473.2Z"
        fill="#AF1919" />
    <path
        d="M938.9 482C939.507 482 940 481.508 940 480.9C940 480.293 939.507 479.8 938.9 479.8C938.292 479.8 937.8 480.293 937.8 480.9C937.8 481.508 938.292 482 938.9 482Z"
        fill="#AF1919" />
    <path
        d="M949.7 484.7C950.307 484.7 950.8 484.208 950.8 483.6C950.8 482.992 950.307 482.5 949.7 482.5C949.092 482.5 948.6 482.992 948.6 483.6C948.6 484.208 949.092 484.7 949.7 484.7Z"
        fill="#AF1919" />
    <path
        d="M977.7 473.2C978.307 473.2 978.8 472.708 978.8 472.1C978.8 471.492 978.307 471 977.7 471C977.092 471 976.6 471.492 976.6 472.1C976.6 472.708 977.092 473.2 977.7 473.2Z"
        fill="#AF1919" />
    <path
        d="M970.7 482C971.307 482 971.8 481.508 971.8 480.9C971.8 480.293 971.307 479.8 970.7 479.8C970.092 479.8 969.6 480.293 969.6 480.9C969.6 481.508 970.092 482 970.7 482Z"
        fill="#AF1919" />
    <path
        d="M959.8 484.7C960.407 484.7 960.9 484.208 960.9 483.6C960.9 482.992 960.407 482.5 959.8 482.5C959.192 482.5 958.7 482.992 958.7 483.6C958.7 484.208 959.192 484.7 959.8 484.7Z"
        fill="#AF1919" />
    <path
        d="M1092 504.3L1012.6 553.2C1011.4 554 1009.8 553.6 1009 552.4C1008.2 551.2 1008.6 549.6 1009.8 548.8C1009.8 548.8 1009.9 548.8 1009.9 548.7L1091.4 503.4C1091.6 503.3 1091.9 503.4 1092.1 503.6C1092.3 503.8 1092.2 504.1 1092 504.3Z"
        fill="#994A34" />
    <path
        d="M1067.4 493.8L1064.6 519.9C1064.5 520.5 1064 520.9 1063.4 520.9C1062.8 520.8 1062.4 520.3 1062.4 519.7L1066.3 493.8C1066.3 493.5 1066.6 493.3 1066.9 493.4C1067.2 493.3 1067.4 493.5 1067.4 493.8Z"
        fill="#994A34" />
    <path
        d="M1079.6 530.1L1053.6 526.9C1053 526.8 1052.6 526.3 1052.7 525.7C1052.8 525.1 1053.3 524.7 1053.9 524.8L1079.8 529.1C1080.1 529.1 1080.3 529.4 1080.2 529.7C1080.1 530 1079.9 530.1 1079.6 530.1Z"
        fill="#994A34" />
    <path
        d="M984.5 518.5H926C920.4 518.5 915.9 514 915.9 508.4V504.7C915.9 499.1 920.4 494.6 926 494.6H984.5C990.1 494.6 994.6 499.1 994.6 504.7V508.4C994.7 513.9 990.1 518.5 984.5 518.5Z"
        fill="#AF1919" />
    <path
        d="M923.8 518.2C924.5 518.4 925.3 518.5 926 518.5H933.3V494.5H926C925.2 494.5 924.5 494.6 923.8 494.8V518.2Z"
        fill="#C44343" />
    <path
        d="M977.9 518.5H984.6C985.6 518.5 986.5 518.4 987.4 518.1V494.9C986.5 494.6 985.6 494.5 984.6 494.5H977.9V518.5Z"
        fill="#C44343" />
    <rect x="960.354" y="518.5" width="9.5" height="24" transform="rotate(-180 960.354 518.5)"
        fill="#C44343" />
    <path opacity="0.5"
        d="M1059.6 594.9C1020.8 713.3 931.5 702.5 880.5 694.8C882 696.3 883.6 697.7 885.2 699.1C885.3 699.2 885.3 699.2 885.4 699.3C886.1 699.9 886.9 700.5 887.6 701.1C887.7 701.2 887.8 701.3 887.9 701.3C888.7 701.9 889.5 702.6 890.3 703.2C892 704.5 893.7 705.7 895.5 706.9C895.6 706.9 895.6 707 895.7 707C896.5 707.5 897.3 708 898.1 708.5C898.2 708.6 898.3 708.6 898.4 708.7C899.3 709.2 900.1 709.8 901 710.3C902.8 711.4 904.7 712.4 906.6 713.3C906.7 713.3 906.8 713.4 906.9 713.4C907.7 713.8 908.6 714.2 909.5 714.6C909.6 714.7 909.7 714.7 909.9 714.8C912.8 716.1 915.7 717.3 918.7 718.4C918.8 718.4 918.9 718.5 919 718.5C919.9 718.8 920.8 719.1 921.7 719.4C921.8 719.4 922 719.5 922.1 719.5C923.1 719.8 924.1 720.1 925.1 720.4C936.1 723.1 946.5 724.6 954.9 724.6C955.9 724.6 956.8 724.6 957.8 724.6C959.6 724.6 961.4 724.5 963.2 724.3C1018.5 720.1 1062.1 673.8 1062.1 617.4C1062 609.7 1061.1 602.2 1059.6 594.9Z"
        fill="#B9E1ED" />
    <path
        d="M1050.4 727.4C1048.6 708.2 1006.5 692.9 954.8 692.9C903.1 692.9 861 708.2 859.2 727.4H1050.4Z"
        fill="#B9E4F9" />
    <path d="M953.6 468.4V454.9L1013.7 462.6L953.6 468.4Z" fill="#F96E32" />
    <path opacity="0.5"
        d="M1050.4 727.4C1048.7 710.1 1014.3 695.9 969.6 693.3C991.7 699.9 1017.4 711.4 1030.7 727.4H1050.4Z"
        fill="#8DD9F7" />
    <path
        d="M827.4 490.4L905.1 552.1C906.2 553 906.4 554.6 905.5 555.7C904.6 556.8 903 557 901.9 556.1C901.9 556.1 901.8 556.1 901.8 556L826.8 491.1C826.6 490.9 826.6 490.6 826.7 490.4C826.9 490.3 827.2 490.3 827.4 490.4Z"
        fill="#994A34" />
    <path
        d="M855.4 484.5L855 512.4C855 513 854.5 513.5 853.9 513.5C853.3 513.5 852.8 513 852.8 512.4L854.3 484.5C854.3 484.2 854.6 484 854.8 484C855.2 484 855.4 484.2 855.4 484.5Z"
        fill="#994A34" />
    <path d="M770 175.1H450.4C450.3 176.1 450.1 177.1 450 178.1H770V175.1Z" fill="black" />
    <path
        d="M601.2 184.6H539.2C535.5 184.6 532.4 181.6 532.4 177.8C532.4 174.1 535.4 171 539.2 171H601.2C604.9 171 608 174 608 177.8C608 181.6 604.9 184.6 601.2 184.6Z"
        fill="#432D54" />
    <path d="M595.6 230.8H588.6V213.5L555.8 180.7L565.6 180.6L595.6 210.6V230.8Z" fill="#503768" />
    <path
        d="M606.3 236.7H577.9V234.5C577.9 228.7 582.6 223.9 588.5 223.9H595.8C601.6 223.9 606.4 228.6 606.4 234.5V236.7H606.3Z"
        fill="#0262B2" />
    <path
        d="M642.9 351.5C648.7 335.9 652 317.4 652 297.6C652 277.8 648.7 259.3 642.9 243.7H541.2C535.4 259.3 532.1 277.8 532.1 297.6C532.1 317.4 535.4 335.9 541.2 351.5H642.9Z"
        fill="#FFA13B" />
    <path
        d="M634.9 235.3H549.2C544.7 235.3 541 239 541 243.5H643.2C643.2 239 639.5 235.3 634.9 235.3Z"
        fill="#0369E2" />
    <path
        d="M549.2 358.9H634.9C639.4 358.9 643.1 355.2 643.1 350.7H541C541 355.2 544.7 358.9 549.2 358.9Z"
        fill="#0369E2" />
    <path
        d="M533.1 316.1H651C651.1 315.3 651.2 314.4 651.3 313.5H532.9C533 314.4 533 315.2 533.1 316.1Z"
        fill="white" />
    <path
        d="M534.4 325.4H649.8C649.9 324.6 650.1 323.7 650.2 322.8H534C534.1 323.7 534.3 324.5 534.4 325.4Z"
        fill="#053449" />
    <rect x="575.6" y="260.2" width="33.3" height="74.8" fill="#FFFBEE" />
    <rect x="575.6" y="337.2" width="33.3" height="3.8" fill="#FFFBEE" />
    <rect x="575.6" y="343.3" width="33.3" height="3.8" fill="#FFFBEE" />
    <path
        d="M642.9 298.2C642.5 283.3 643.2 276.3 640.2 266C639.2 262.5 636 260.2 632.4 260.2H617.1V298.2H642.9Z"
        fill="#FCEAC3" />
    <path
        d="M541.3 298.2C541.7 283.3 541 276.3 544 266C545 262.5 548.2 260.2 551.8 260.2H567.1V298.2H541.3Z"
        fill="#FCEAC3" />
    <path d="M541.3 298.2L567.1 260.2V298.2H541.3Z" fill="#FFFBEE" />
    <path d="M632.4 260.2H617.1V298.2H617.5L639.7 264.7C638.3 262 635.5 260.2 632.4 260.2Z"
        fill="#FFFBEE" />
    <path
        d="M580.3 300.2H580C579.5 300.2 579.2 299.8 579.2 299.4V293.7C579.2 293.2 579.6 292.9 580 292.9H580.3C580.8 292.9 581.1 293.3 581.1 293.7V299.4C581.1 299.8 580.7 300.2 580.3 300.2Z"
        fill="#053449" />
    <path d="M783.6 704.1H616.5L563.8 548H730.8L783.6 704.1Z" fill="#FFB53E" />
    <path d="M730.3 548C730.3 548 768 712.7 793.7 727.1" stroke="#EFE4D3" />
    <path d="M563.8 548H563.3L510.5 704.1H616.5L563.8 548Z" fill="#E59328" />
    <path d="M563.3 548L580.6 704.2" stroke="#EFE4D3" />
    <path d="M563.6 548C563.6 548 601.3 712.7 627 727.1" stroke="#EFE4D3" />
    <path d="M563.7 548C563.7 548 526 712.7 500.3 727.1" stroke="#EFE4D3" />
    <path d="M563.6 548L546.3 704.2" stroke="#EFE4D3" />
    <path d="M431.4 726.6C431.3 719.4 425.4 713.6 418.2 713.6H341.9V726.6H431.4Z" fill="#7C3A3A" />
    <rect x="352.2" y="721.5" width="81.5" height="0.5" fill="#FCE1D9" />
    <rect x="347.9" y="715.8" width="81.5" height="0.5" fill="#FCE1D9" />
    <path
        d="M355.8 726.6C355.4 719.3 349.3 713.6 342 713.6H341.9C334.5 713.6 328.5 719.4 328.1 726.6H355.8Z"
        fill="#FCE1D9" />
    <path
        d="M331.4 726.6C331.8 721.2 336.3 717 341.9 717C347.4 717 351.9 721.3 352.3 726.6H353C352.6 720.9 347.8 716.3 341.8 716.3C335.9 716.3 331.1 720.8 330.7 726.6H331.4Z"
        fill="#7C3A3A" />
    <path
        d="M335.1 726.6C335.5 723.2 338.4 720.6 341.9 720.6C345.4 720.6 348.3 723.2 348.7 726.6H349.4C349 722.9 345.8 719.9 341.9 719.9C338.1 719.9 334.9 722.8 334.5 726.6H335.1Z"
        fill="#7C3A3A" />
    <path
        d="M339 726.6C339.4 725.4 340.5 724.5 341.9 724.5C343.2 724.5 344.4 725.4 344.7 726.6H345.4C345 725 343.6 723.8 341.9 723.8C340.2 723.8 338.8 725 338.4 726.6H339Z"
        fill="#7C3A3A" />
    <path
        d="M392 628C392 628 323.9 717.4 392 717.4C460.1 717.4 413.3 655.7 413.3 655.7L405.8 666.3L392 628Z"
        fill="#FF552E" />
    <path fill-rule="evenodd" clip-rule="evenodd"
        d="M393 649.8C393 649.8 343.9 714.3 393 714.3C442.1 714.3 408.3 669.8 408.3 669.8L402.9 677.5L393 649.8Z"
        stroke="#FFA13B" />
    <path fill-rule="evenodd" clip-rule="evenodd"
        d="M394 677.3C394 677.3 365.5 714.6 394 714.6C422.5 714.6 402.9 688.8 402.9 688.8L399.8 693.2L394 677.3Z"
        stroke="#FFA13B" />
    <path d="M464.7 726.6C464.6 719.4 458.7 713.6 451.5 713.6H375.2V726.6H464.7Z" fill="#7C3A3A" />
    <path d="M464.2 723.5H388.1V724H464.4C464.3 723.8 464.3 723.7 464.2 723.5Z" fill="#FCE1D9" />
    <path d="M383.7 718.1H461.3C461.1 717.9 460.9 717.8 460.7 717.6H383.8V718.1H383.7Z"
        fill="#FCE1D9" />
    <path
        d="M389.1 726.6C388.7 719.3 382.6 713.6 375.3 713.6H375.2C367.8 713.6 361.8 719.4 361.4 726.6H389.1Z"
        fill="#FCE1D9" />
    <path
        d="M364.8 726.6C365.2 721.2 369.7 717 375.3 717C380.8 717 385.3 721.3 385.7 726.6H386.4C386 720.9 381.2 716.3 375.2 716.3C369.3 716.3 364.5 720.8 364.1 726.6H364.8Z"
        fill="#7C3A3A" />
    <path
        d="M368.4 726.6C368.8 723.2 371.7 720.6 375.2 720.6C378.7 720.6 381.6 723.2 382 726.6H382.7C382.3 722.9 379.1 719.9 375.2 719.9C371.4 719.9 368.2 722.8 367.8 726.6H368.4Z"
        fill="#7C3A3A" />
    <path
        d="M372.4 726.6C372.8 725.4 373.9 724.5 375.3 724.5C376.6 724.5 377.8 725.4 378.1 726.6H378.8C378.4 725 377 723.8 375.3 723.8C373.6 723.8 372.2 725 371.8 726.6H372.4Z"
        fill="#7C3A3A" />
    <rect x="214" y="644.7" width="17.1" height="82.5" fill="#7C3A3A" />
    <path
        d="M278.3 645.2L254.3 605.3H266.5L247.7 574.2H257.4L241.9 548.5H250.1L237.7 528H244.3L233.7 510.3H239.8L222.7 482H222.5L205.4 510.3H211.5L200.9 528H207.5L195.1 548.5H203.3L187.8 574.2H197.5L178.7 605.3H190.9L166.9 645.2H278.3Z"
        fill="#50D6A5" />
    <path
        d="M260.2 612H230.8C228.9 612 227.4 610.5 227.4 608.6C227.4 606.7 228.9 605.2 230.8 605.2H260.2C262.1 605.2 263.6 606.7 263.6 608.6C263.6 610.5 262.1 612 260.2 612Z"
        fill="#EBEFFC" />
    <path
        d="M223.7 580.9H193.8C191.9 580.9 190.4 579.4 190.4 577.5C190.4 575.6 191.9 574.1 193.8 574.1H223.7C225.6 574.1 227.1 575.6 227.1 577.5C227 579.4 225.5 580.9 223.7 580.9Z"
        fill="#EBEFFC" />
    <path
        d="M222.1 534.8H203.3C201.4 534.8 199.9 533.3 199.9 531.4C199.9 529.5 201.4 528 203.3 528H222.2C224.1 528 225.6 529.5 225.6 531.4C225.5 533.3 224 534.8 222.1 534.8Z"
        fill="#EBEFFC" />
    <path d="M884.9 234.8H882L880.6 359.4H887.3L884.9 234.8Z" fill="#7C3A3A" />
    <path
        d="M884.3 282.2C886.9 281.1 889.6 279.8 892.1 278.4C894.7 277 897.1 275.4 899.4 273.6C901.7 271.8 903.9 269.9 905.6 267.6C907.4 265.4 908.7 262.8 909.2 260L910.6 260.2C910.3 263.3 909 266.3 907.2 268.9C905.4 271.5 903.3 273.7 901 275.7C898.7 277.7 896.2 279.5 893.7 281.2C891.1 282.9 888.5 284.4 885.7 285.7L884.3 282.2Z"
        fill="#7C3A3A" />
    <path
        d="M882.9 271.7C880.1 270.3 877.5 268.8 874.9 267.2C872.3 265.5 869.9 263.7 867.6 261.7C865.3 259.7 863.2 257.4 861.4 254.9C859.6 252.4 858.3 249.4 858 246.2L859.4 246C859.9 248.8 861.2 251.4 863 253.6C864.8 255.9 866.9 257.8 869.2 259.6C871.5 261.4 874 262.9 876.5 264.4C879 265.8 881.7 267.1 884.3 268.2L882.9 271.7Z"
        fill="#7C3A3A" />
    <path
        d="M883.6 252.1C885.3 251.6 887.1 250.8 888.8 250.1C890.5 249.3 892.2 248.5 893.7 247.5C895.3 246.5 896.8 245.4 898 244.2C899.3 242.9 900.3 241.4 900.6 239.7L902 239.9C901.8 242 900.7 243.9 899.5 245.5C898.2 247.1 896.7 248.5 895.1 249.7C893.5 250.9 891.8 252 890.1 253C888.4 254 886.7 254.9 884.8 255.7L883.6 252.1Z"
        fill="#7C3A3A" />
    <path d="M923.1 188.1H919.2L917.2 359.4H926.4L923.1 188.1Z" fill="#7C3A3A" />
    <path
        d="M922.3 253.3C925.9 251.8 929.6 250 933.1 248.1C936.6 246.1 940 244 943.2 241.6C946.4 239.2 949.3 236.5 951.8 233.4C954.3 230.3 956.1 226.8 956.7 222.9L958.7 223.1C958.3 227.4 956.5 231.5 954.1 235C951.7 238.5 948.7 241.6 945.6 244.4C942.4 247.2 939 249.7 935.5 252C932 254.3 928.4 256.4 924.5 258.3L922.3 253.3Z"
        fill="#7C3A3A" />
    <path
        d="M920.3 238.9C916.4 237 912.8 234.9 909.3 232.6C905.8 230.3 902.4 227.8 899.2 225C896 222.2 893.1 219.1 890.7 215.6C888.3 212.1 886.5 208 886.1 203.7L888.1 203.5C888.7 207.3 890.6 210.9 893 214C895.4 217.1 898.4 219.8 901.6 222.2C904.8 224.6 908.2 226.8 911.7 228.7C915.2 230.6 918.9 232.4 922.5 233.9L920.3 238.9Z"
        fill="#7C3A3A" />
    <path
        d="M921.3 211.8C923.6 211 926.1 210.1 928.4 209C930.7 207.9 933 206.8 935.2 205.4C937.4 204.1 939.4 202.6 941.2 200.8C942.9 199 944.4 197 944.8 194.6L946.8 194.9C946.5 197.8 945 200.5 943.3 202.7C941.5 204.9 939.5 206.8 937.3 208.4C935.1 210.1 932.8 211.6 930.5 212.9C928.1 214.3 925.8 215.5 923.2 216.7L921.3 211.8Z"
        fill="#7C3A3A" />
    <path d="M841.5 234.8H844.4L845.8 359.4H839.1L841.5 234.8Z" fill="#7C3A3A" />
    <path
        d="M843.6 268.1C846.4 266.7 849 265.2 851.6 263.6C854.2 261.9 856.6 260.1 858.9 258.1C861.2 256.1 863.3 253.8 865.1 251.3C866.9 248.8 868.2 245.8 868.5 242.6L867.1 242.4C866.6 245.2 865.3 247.8 863.5 250C861.7 252.3 859.6 254.2 857.3 256C855 257.8 852.5 259.3 850 260.8C847.5 262.2 844.8 263.5 842.2 264.6L843.6 268.1Z"
        fill="#7C3A3A" />
    <path
        d="M842.9 248.4C841.2 247.9 839.4 247.1 837.7 246.4C836 245.6 834.3 244.8 832.8 243.8C831.2 242.8 829.7 241.7 828.5 240.5C827.2 239.2 826.2 237.7 825.9 236L824.5 236.2C824.7 238.3 825.8 240.2 827 241.8C828.3 243.4 829.8 244.8 831.4 246C833 247.2 834.7 248.3 836.4 249.3C838.1 250.3 839.8 251.2 841.7 252L842.9 248.4Z"
        fill="#7C3A3A" />
    <path d="M964 0L972.4 0.1L976.6 359.4L957.1 359.3L964 0Z" fill="#7C3A3A" />
    <path
        d="M990.4 86.2C987.7 87.4 984.8 85 985.3 82.1C985.8 79.6 986.8 77.1 988.9 76.6C993.5 75.5 993 62.1 1002.8 65.2C1012.7 68.3 1010.2 60.9 1015.9 62.3C1020 63.4 1024.5 71.3 990.4 86.2Z"
        fill="#D2D9FC" />
    <path
        d="M939.7 122.8C942.4 124 945.3 121.6 944.8 118.7C944.3 116.2 943.3 113.7 941.2 113.2C936.6 112.1 937.1 98.7 927.3 101.8C917.4 104.9 919.9 97.5 914.2 98.9C910.2 100 905.7 107.8 939.7 122.8Z"
        fill="#D2D9FC" />
    <path
        d="M965.7 136.9C958.1 133.8 950.4 130.1 943.1 126C935.7 121.9 928.6 117.4 922 112.3C915.4 107.2 909.1 101.5 904 95C898.9 88.5 895 81.1 893.6 73L889.4 73.5C890.3 82.6 894.1 91.1 899.1 98.5C904.2 105.9 910.4 112.3 917 118.2C923.7 124 930.8 129.3 938.1 134C945.5 138.8 953 143.2 961.2 147.1L965.7 136.9Z"
        fill="#7C3A3A" />
    <path
        d="M970 106.6C978.2 102.6 985.6 98.3 993.1 93.5C1000.5 88.7 1007.6 83.5 1014.2 77.7C1020.8 71.8 1027 65.4 1032.1 58C1037.2 50.7 1041 42.1 1041.8 33L1037.6 32.5C1036.2 40.6 1032.4 48 1027.2 54.5C1022.1 61 1015.9 66.6 1009.2 71.8C1002.5 76.9 995.4 81.4 988.1 85.5C980.8 89.6 973.1 93.4 965.5 96.4L970 106.6Z"
        fill="#7C3A3A" />
    <path
        d="M968 49.8C963.1 48.2 957.9 46.2 953.1 44C948.2 41.8 943.4 39.3 938.8 36.5C934.2 33.7 929.9 30.5 926.3 26.8C922.7 23.1 919.7 18.8 918.7 13.9L914.6 14.5C915.2 20.7 918.3 26.2 921.9 30.8C925.6 35.4 929.9 39.3 934.5 42.8C939.1 46.3 943.9 49.5 948.8 52.3C953.8 55.2 958.7 57.8 964.2 60.2L968 49.8Z"
        fill="#7C3A3A" />
    <rect x="1227.1" y="206" width="169.1" height="153.2" fill="#EB8888" />
    <path
        d="M1345.3 291.3H1336.6C1335.5 291.3 1334.5 290.4 1334.5 289.2V287.5C1334.5 286.4 1335.4 285.4 1336.6 285.4H1345.3C1346.4 285.4 1347.4 286.3 1347.4 287.5V289.2C1347.4 290.4 1346.4 291.3 1345.3 291.3Z"
        fill="#B72929" />
    <path d="M1181.1 151.8H1180.6L1134.2 206V359.2H1227.5V206L1181.1 151.8Z" fill="#B72929" />
    <path d="M1396.4 206.1H1226.9L1180.9 151.3H1350.4L1396.4 206.1Z" fill="#FFEDED" />
    <path
        d="M1276.4 297.4H1248.3V267.1C1248.3 259.3 1254.6 253.1 1262.3 253.1C1270.1 253.1 1276.3 259.4 1276.3 267.1V297.4H1276.4Z"
        fill="#CB4B4B" />
    <path
        d="M1274.3 293.5H1250.3V266.9C1250.3 260.4 1255.5 255.2 1262 255.2H1262.6C1269.1 255.2 1274.3 260.4 1274.3 266.9V293.5Z"
        fill="#FFFBEE" />
    <rect x="1248.3" y="286.5" width="28.1" height="10.9" fill="#CB4B4B" />
    <path
        d="M1192.7 279.8H1164.6V249.5C1164.6 241.7 1170.9 235.5 1178.6 235.5C1186.4 235.5 1192.6 241.8 1192.6 249.5V279.8H1192.7Z"
        fill="#EB8888" />
    <path
        d="M1190.6 275.9H1166.6V249.3C1166.6 242.8 1171.8 237.6 1178.3 237.6H1178.9C1185.4 237.6 1190.6 242.8 1190.6 249.3V275.9Z"
        fill="#FFFBEE" />
    <path
        d="M1386.2 297.4H1358.1V267.1C1358.1 259.3 1364.4 253.1 1372.1 253.1C1379.9 253.1 1386.1 259.4 1386.1 267.1V297.4H1386.2Z"
        fill="#CB4B4B" />
    <path
        d="M1384.1 293.5H1360.1V266.9C1360.1 260.4 1365.3 255.2 1371.8 255.2H1372.4C1378.9 255.2 1384.1 260.4 1384.1 266.9V293.5Z"
        fill="#FFFBEE" />
    <rect x="1358.1" y="286.5" width="28.1" height="10.9" fill="#CB4B4B" />
    <path
        d="M1301.4 322.7H1344.5V276.1C1344.5 264.2 1334.9 254.6 1323 254.6C1311.1 254.6 1301.5 264.2 1301.5 276.1V322.7H1301.4Z"
        fill="#CB4B4B" />
    <path
        d="M1303.7 319.7H1342.1V277.2C1342.1 266.6 1333.5 258 1322.9 258C1312.3 258 1303.7 266.6 1303.7 277.2V319.7Z"
        fill="#EB8888" />
    <path
        d="M1306.6 316.3H1339.4V278.1C1339.4 269.1 1332.1 261.8 1323.1 261.8H1322.9C1313.9 261.8 1306.6 269.1 1306.6 278.1V316.3Z"
        fill="#CB4B4B" />
    <rect x="1334.47" y="312.986" width="8.7" height="31.8" transform="rotate(-180 1334.47 312.986)"
        fill="#EB8888" />
    <rect x="1319.48" y="312.986" width="8.7" height="31.8" transform="rotate(-180 1319.48 312.986)"
        fill="#EB8888" />
    <rect x="1355.5" y="239.7" width="14" height="119.5" fill="#B72929" />
    <rect x="1344.43" y="359.164" width="67.5" height="12.4"
        transform="rotate(-180 1344.43 359.164)" fill="#C13E3E" />
    <rect x="1344.5" y="359.175" width="56.1" height="25.7" transform="rotate(-180 1344.5 359.175)"
        fill="#C13E3E" />
    <rect x="1344.51" y="359.155" width="43.2" height="36.8"
        transform="rotate(-180 1344.51 359.155)" fill="#C13E3E" />
    <path
        d="M1306.6 277.2C1307.1 268.6 1314.1 261.8 1322.8 261.8H1323C1331.7 261.8 1338.8 268.6 1339.2 277.2H1306.6Z"
        fill="#FFFBEE" />
    <path
        d="M1179.3 210.1C1186.65 210.1 1192.6 204.145 1192.6 196.8C1192.6 189.455 1186.65 183.5 1179.3 183.5C1171.95 183.5 1166 189.455 1166 196.8C1166 204.145 1171.95 210.1 1179.3 210.1Z"
        fill="#EB8888" />
    <path
        d="M1179.3 208C1185.49 208 1190.5 202.986 1190.5 196.8C1190.5 190.614 1185.49 185.6 1179.3 185.6C1173.11 185.6 1168.1 190.614 1168.1 196.8C1168.1 202.986 1173.11 208 1179.3 208Z"
        fill="#FFFBEE" />
    <path
        d="M1164.8 230.2H1156.1C1155 230.2 1154 229.3 1154 228.1V226.4C1154 225.3 1154.9 224.3 1156.1 224.3H1164.8C1165.9 224.3 1166.9 225.2 1166.9 226.4V228.1C1166.9 229.3 1166 230.2 1164.8 230.2Z"
        fill="#EB8888" />
    <path
        d="M1159.4 235.9H1150.7C1149.6 235.9 1148.6 235 1148.6 233.8V232.1C1148.6 231 1149.5 230 1150.7 230H1159.4C1160.5 230 1161.5 230.9 1161.5 232.1V233.8C1161.4 235 1160.5 235.9 1159.4 235.9Z"
        fill="#EB8888" />
    <path
        d="M1215.4 259.1H1206.7C1205.6 259.1 1204.6 258.2 1204.6 257V255.3C1204.6 254.2 1205.5 253.2 1206.7 253.2H1215.4C1216.5 253.2 1217.5 254.1 1217.5 255.3V257C1217.5 258.2 1216.6 259.1 1215.4 259.1Z"
        fill="#EB8888" />
    <path
        d="M1207.9 341.6H1199.2C1198.1 341.6 1197.1 340.7 1197.1 339.5V337.8C1197.1 336.7 1198 335.7 1199.2 335.7H1207.9C1209 335.7 1210 336.6 1210 337.8V339.5C1210 340.7 1209 341.6 1207.9 341.6Z"
        fill="#EB8888" />
    <path
        d="M1165.2 325.2H1156.5C1155.4 325.2 1154.4 324.3 1154.4 323.1V321.4C1154.4 320.3 1155.3 319.3 1156.5 319.3H1165.2C1166.3 319.3 1167.3 320.2 1167.3 321.4V323.1C1167.2 324.3 1166.3 325.2 1165.2 325.2Z"
        fill="#EB8888" />
    <path
        d="M1266.8 312.4H1258.1C1257 312.4 1256 311.5 1256 310.3V308.6C1256 307.5 1256.9 306.5 1258.1 306.5H1266.8C1267.9 306.5 1268.9 307.4 1268.9 308.6V310.3C1268.9 311.5 1267.9 312.4 1266.8 312.4Z"
        fill="#B72929" />
    <path
        d="M1254.8 342.4H1246.1C1245 342.4 1244 341.5 1244 340.3V338.6C1244 337.5 1244.9 336.5 1246.1 336.5H1254.8C1255.9 336.5 1256.9 337.4 1256.9 338.6V340.3C1256.9 341.5 1256 342.4 1254.8 342.4Z"
        fill="#B72929" />
    <path
        d="M1330.5 228.9H1321.8C1320.7 228.9 1319.7 228 1319.7 226.8V225.1C1319.7 224 1320.6 223 1321.8 223H1330.5C1331.6 223 1332.6 223.9 1332.6 225.1V226.8C1332.6 228 1331.7 228.9 1330.5 228.9Z"
        fill="#B72929" />
    <path
        d="M1388.7 325.1H1380C1378.9 325.1 1377.9 324.2 1377.9 323V321.3C1377.9 320.2 1378.8 319.2 1380 319.2H1388.7C1389.8 319.2 1390.8 320.1 1390.8 321.3V323C1390.8 324.2 1389.8 325.1 1388.7 325.1Z"
        fill="#B72929" />
    <path
        d="M1357.5 219.4H1348.8C1347.7 219.4 1346.7 218.5 1346.7 217.3V215.6C1346.7 214.5 1347.6 213.5 1348.8 213.5H1357.5C1358.6 213.5 1359.6 214.4 1359.6 215.6V217.3C1359.6 218.5 1358.7 219.4 1357.5 219.4Z"
        fill="#B72929" />
    <rect x="1321.5" y="163.2" width="23" height="17" fill="#CF765D" />
    <path
        d="M1322 159.7C1322 159.7 1320.5 135.9 1337.6 129.6C1385.7 111.8 1349 73.3 1389 71.7C1420.1 70.5 1438 59.7 1448.5 48.2C1461 34.4 1475.8 30 1494.4 30C1526.3 30 1538 71.9 1510.8 88.5C1486.1 103.6 1455.5 113.8 1421.8 106.6C1382.9 98.3 1410.4 141.9 1371.5 140.6C1349 139.8 1345.6 159.8 1345.6 159.8H1322V159.7Z"
        fill="url(#paint0_linear)" />
    <rect x="1178.8" y="184.9" width="1" height="24" fill="#EB8888" />
    <rect x="1166.9" y="196.3" width="25" height="1" fill="#EB8888" />
    <path
        d="M1194.6 300.9H1185.9C1184.8 300.9 1183.8 300 1183.8 298.8V297.1C1183.8 296 1184.7 295 1185.9 295H1194.6C1195.7 295 1196.7 295.9 1196.7 297.1V298.8C1196.7 300 1195.8 300.9 1194.6 300.9Z"
        fill="#EB8888" />
    <path
        d="M1151.4 305.6H1142.7C1141.6 305.6 1140.6 304.7 1140.6 303.5V301.8C1140.6 300.7 1141.5 299.7 1142.7 299.7H1151.4C1152.5 299.7 1153.5 300.6 1153.5 301.8V303.5C1153.5 304.7 1152.6 305.6 1151.4 305.6Z"
        fill="#EB8888" />
    <path
        d="M1212.1 227.7H1203.4C1202.3 227.7 1201.3 226.8 1201.3 225.6V223.9C1201.3 222.8 1202.2 221.8 1203.4 221.8H1212.1C1213.2 221.8 1214.2 222.7 1214.2 223.9V225.6C1214.2 226.8 1213.3 227.7 1212.1 227.7Z"
        fill="#EB8888" />
    <path
        d="M1252.8 228.6H1244.1C1243 228.6 1242 227.7 1242 226.5V224.8C1242 223.7 1242.9 222.7 1244.1 222.7H1252.8C1253.9 222.7 1254.9 223.6 1254.9 224.8V226.5C1254.8 227.7 1253.9 228.6 1252.8 228.6Z"
        fill="#B72929" />
    <path
        d="M1321.9 163.2H1344C1345.5 163.2 1346.6 162 1346.6 160.6C1346.6 159.1 1345.4 158 1344 158H1321.9C1320.4 158 1319.3 159.2 1319.3 160.6C1319.3 162 1320.5 163.2 1321.9 163.2Z"
        fill="white" />
    <rect x="1164.6" y="268.9" width="28.1" height="10.9" fill="#EB8888" />
    <rect x="1261.7" y="239.7" width="14" height="119.5" fill="#B72929" />
    <path
        d="M1250.2 242.2H1384.6C1386.1 242.2 1387.2 241 1387.2 239.6C1387.2 238.1 1386 237 1384.6 237H1250.2C1248.7 237 1247.6 238.2 1247.6 239.6C1247.6 241 1248.7 242.2 1250.2 242.2Z"
        fill="white" />
    <path
        d="M1477.2 596.041C1474.3 591.841 1471.7 587.441 1469.5 582.841C1463.7 570.641 1461 557.241 1455.8 544.741C1450.1 531.041 1440.8 518.041 1427.3 511.841C1418 507.541 1407.4 506.641 1398.4 501.741C1386.9 495.541 1379.6 483.641 1369 476.141C1360.5 470.141 1349.8 467.641 1339.4 468.041C1318.2 468.841 1295.2 505.441 1292.4 511.041C1286.9 522.441 1282.3 534.241 1277.8 546.041C1267.7 572.941 1258.4 600.041 1250 627.541C1245.9 640.841 1242 654.341 1241 668.241C1240.4 676.541 1240.8 684.841 1241.2 693.041C1241.7 703.541 1242.2 714.141 1242.7 724.641C1296.8 725.241 1351 725.841 1405.1 726.441C1453.7 726.941 1502.4 727.441 1551 725.041C1536.9 686.641 1517.9 649.841 1493.1 617.341C1487.8 610.241 1482.1 603.341 1477.2 596.041Z"
        fill="#EBEFFC" />
    <path
        d="M1476.9 726.841C1475.3 718.341 1471.9 704.041 1470.8 697.441C1469.7 690.541 1468.3 682.741 1464.1 679.341C1459.6 675.641 1453.1 678.041 1449.7 672.241C1447.8 668.941 1447.6 664.241 1446.5 660.141C1443.3 648.241 1433.6 644.641 1425.2 641.941C1422.5 641.041 1419.6 639.941 1417.8 636.841C1416.7 634.841 1416.1 632.241 1415.6 629.741C1413.5 619.241 1412 608.541 1411.1 597.641C1411.1 597.641 1404.8 641.941 1411.9 651.441C1413.8 653.941 1431.7 659.241 1434.6 663.341C1438.6 668.741 1443.3 691.541 1450.4 693.841C1456.4 695.841 1452.8 719.541 1451.5 726.741C1460 726.841 1468.4 726.841 1476.9 726.841Z"
        fill="#D9E2F9" />
    <path
        d="M1283.6 571.241C1283.6 571.241 1291.8 543.741 1304.8 542.841C1322.6 541.641 1332.5 518.241 1332.5 518.241C1332.5 518.241 1332.3 547.641 1311.1 553.341C1289.9 559.041 1292.1 595.241 1292.1 595.241L1283.6 571.241Z"
        fill="#D9E2F9" />
    <path
        d="M1493.2 617.941C1487.8 610.841 1482.2 603.941 1477.2 596.641C1474.3 592.441 1471.7 588.041 1469.5 583.441C1463.7 571.241 1461 557.841 1455.8 545.341C1450.1 531.641 1440.8 518.641 1427.3 512.441C1418 508.141 1407.4 507.241 1398.4 502.341C1386.9 496.141 1379.6 484.241 1369 476.741C1363.1 472.541 1356.1 470.041 1348.9 469.041C1357.2 481.941 1377.1 509.741 1399.9 521.341C1430 536.741 1439.1 533.841 1459.6 591.841C1479.4 647.941 1517.9 672.141 1518.8 726.741C1529.6 726.441 1540.3 726.041 1551.1 725.541C1536.9 687.241 1518 650.441 1493.2 617.941Z"
        fill="#D9E2F9" />
    <path
        d="M1170.8 595.341C1174.9 585.441 1192.9 576.841 1202.6 572.341C1209.3 569.241 1225.8 551.241 1233.5 545.741C1239.7 541.341 1247.3 539.641 1254.8 539.841C1270.1 540.441 1286.7 566.841 1288.7 570.941C1292.6 579.141 1296 587.741 1299.2 596.241C1306.5 615.641 1354.2 628.941 1354.7 649.741C1355.3 674.441 1394.8 726.641 1394.8 726.641C1394.8 726.641 1246.4 726.141 1207.3 726.641C1172.2 727.041 1137 727.441 1102 725.641C1112.2 697.941 1125.9 671.341 1143.8 647.841C1147.7 642.641 1167.1 604.341 1170.8 595.341Z"
        fill="#D2D9FC" />
    <path
        d="M1288 726.841C1290 700.741 1271.6 674.141 1271.1 656.641C1270.6 637.941 1242.3 624.941 1241.4 614.441C1240.4 603.841 1227 584.741 1227 584.741C1227 584.741 1230.8 608.241 1230.4 616.841C1229.9 625.441 1247.7 633.141 1246.7 659.541C1246 678.341 1251.5 710.041 1254.6 726.841C1265.2 726.841 1276.5 726.841 1288 726.841Z"
        fill="#B4C2F9" />
    <path
        d="M1299.2 596.541C1298.4 594.441 1297.6 592.241 1296.8 590.141C1296.3 588.941 1295.9 587.741 1295.4 586.541C1295.3 586.341 1295.2 586.141 1295.2 585.941C1294.8 584.941 1294.4 583.841 1293.9 582.841C1293.8 582.741 1293.8 582.541 1293.7 582.441C1293.2 581.341 1292.8 580.241 1292.3 579.141C1292.3 579.041 1292.2 578.941 1292.2 578.941C1291.7 577.741 1291.2 576.541 1290.6 575.341C1290 573.941 1289.4 572.641 1288.7 571.241C1288.6 571.141 1288.6 570.941 1288.5 570.841C1288.5 570.841 1288.4 570.741 1288.4 570.641C1288.3 570.541 1288.3 570.441 1288.2 570.241C1288.2 570.141 1288.1 570.041 1288.1 569.941C1288 569.841 1288 569.741 1287.9 569.541C1287.8 569.441 1287.8 569.341 1287.7 569.241C1287.6 569.141 1287.5 568.941 1287.5 568.841C1287.4 568.741 1287.3 568.541 1287.3 568.441C1287.2 568.341 1287.1 568.141 1287.1 568.041C1287 567.841 1286.9 567.741 1286.8 567.541C1286.7 567.441 1286.6 567.241 1286.5 567.141C1286.4 566.941 1286.3 566.741 1286.1 566.541C1286 566.441 1285.9 566.241 1285.9 566.141C1285.8 565.941 1285.6 565.741 1285.5 565.441C1285.4 565.341 1285.4 565.241 1285.3 565.141C1285.1 564.841 1285 564.641 1284.8 564.341C1284.8 564.241 1284.7 564.241 1284.7 564.141C1283.3 562.041 1281.6 559.741 1279.7 557.341C1279.4 556.941 1279.1 556.541 1278.7 556.141L1278.6 556.041C1278.3 555.641 1278 555.241 1277.6 554.941L1277.5 554.841C1277.2 554.441 1276.8 554.041 1276.5 553.741C1276.5 553.741 1276.5 553.641 1276.4 553.641C1276 553.241 1275.7 552.841 1275.3 552.441C1272.3 549.241 1269 546.241 1265.6 543.941C1265.6 543.941 1265.5 543.941 1265.5 543.841C1265.1 543.541 1264.7 543.341 1264.3 543.141L1264.2 543.041C1263.8 542.841 1263.4 542.641 1263 542.441C1262.9 542.441 1262.9 542.341 1262.8 542.341C1262.4 542.141 1262 541.941 1261.6 541.741C1261.5 541.741 1261.5 541.641 1261.4 541.641C1261 541.441 1260.6 541.341 1260.2 541.141H1260.1C1259.7 540.941 1259.3 540.841 1258.9 540.741C1285.6 570.641 1292.1 596.941 1291 611.441C1289.4 633.941 1325.6 647.641 1330.8 657.041C1334.9 664.541 1348.1 708.541 1353.4 726.641C1377.6 726.741 1394.8 726.741 1394.8 726.741C1394.8 726.741 1394.8 726.641 1394.7 726.641C1394.7 726.641 1394.7 726.641 1394.6 726.541C1394.6 726.441 1394.5 726.441 1394.4 726.341C1394.3 726.241 1394.3 726.241 1394.2 726.141C1394.2 726.041 1394.1 726.041 1394.1 725.941C1394 725.841 1393.9 725.741 1393.8 725.541L1393.7 725.441C1393.6 725.241 1393.5 725.141 1393.3 724.941C1393.2 724.841 1393.2 724.741 1393.1 724.641C1392.9 724.441 1392.8 724.241 1392.6 723.941L1392.5 723.841C1392.3 723.641 1392.1 723.341 1391.9 723.041C1391.8 722.941 1391.8 722.841 1391.7 722.741C1391.5 722.441 1391.2 722.141 1391 721.741C1390.8 721.441 1390.5 721.041 1390.2 720.641C1390.1 720.541 1390.1 720.441 1390 720.341C1389.4 719.541 1388.9 718.741 1388.2 717.841C1388.1 717.741 1388 717.641 1388 717.441C1387.4 716.541 1386.7 715.541 1386 714.541C1385.9 714.441 1385.8 714.241 1385.7 714.141C1385.4 713.641 1385 713.141 1384.7 712.641C1384.7 712.641 1384.7 712.541 1384.6 712.541C1384.3 712.041 1383.9 711.541 1383.5 710.941C1383.4 710.741 1383.3 710.641 1383.2 710.441C1382.8 709.941 1382.5 709.341 1382.1 708.741C1380.9 707.041 1379.8 705.141 1378.5 703.341C1374.8 697.641 1371 691.341 1367.5 684.941C1366.5 683.141 1365.6 681.441 1364.7 679.641C1364.6 679.441 1364.5 679.241 1364.4 679.141C1362.9 676.341 1361.6 673.441 1360.4 670.741C1360.2 670.241 1360 669.741 1359.7 669.241C1359.4 668.441 1359 667.641 1358.7 666.841C1358.7 666.741 1358.6 666.641 1358.6 666.441C1358.3 665.641 1358 664.941 1357.7 664.141C1357.7 664.041 1357.6 663.841 1357.6 663.741C1357.3 662.941 1357.1 662.241 1356.8 661.541C1356.8 661.441 1356.7 661.341 1356.7 661.241C1356.2 659.741 1355.8 658.241 1355.5 656.741C1355.5 656.641 1355.5 656.541 1355.4 656.441C1355.2 655.741 1355.1 655.041 1355 654.441C1355 654.341 1355 654.241 1354.9 654.041C1354.8 653.341 1354.7 652.741 1354.6 652.141C1354.6 652.041 1354.6 651.941 1354.6 651.841C1354.5 651.141 1354.5 650.541 1354.5 649.941C1354.3 629.341 1306.5 615.941 1299.2 596.541Z"
        fill="#B4C2F9" />
    <path
        d="M1182.7 602.841C1176.5 603.741 1168.3 608.341 1163 611.741C1161.6 614.641 1160.1 617.541 1158.6 620.641C1166.8 614.741 1178.6 607.041 1182.4 608.741C1188.5 611.341 1205.5 589.241 1206 586.941C1206 586.841 1192.6 601.341 1182.7 602.841Z"
        fill="#B4C2F9" />
    <path
        d="M178.2 155C94.4 155 26.6 222.8 26.6 306.3V339.3H329.9V306.3C329.8 222.8 262 155 178.2 155Z"
        fill="#DEF1FF" />
    <path
        d="M272 246.3H298.9C301.1 246.3 302.8 244.5 302.8 242.4V235.5C302.8 233.3 301 231.6 298.9 231.6H272C269.8 231.6 268.1 233.4 268.1 235.5V242.4C268 244.5 269.8 246.3 272 246.3Z"
        fill="#F3FAFF" />
    <path
        d="M251.9 272H278.8C281 272 282.7 270.2 282.7 268.1V261.2C282.7 259 280.9 257.3 278.8 257.3H251.9C249.7 257.3 248 259.1 248 261.2V268.1C247.8 270.2 249.7 272 251.9 272Z"
        fill="#C6C6C6" />
    <path
        d="M205.6 191.6H232.5C234.7 191.6 236.4 189.8 236.4 187.7V180.7C236.4 178.5 234.6 176.8 232.5 176.8H205.6C203.4 176.8 201.7 178.6 201.7 180.7V187.6C201.7 189.8 203.4 191.6 205.6 191.6Z"
        fill="#F3FAFF" />
    <path
        d="M227.9 301.7H254.8C257 301.7 258.7 299.9 258.7 297.8V290.9C258.7 288.7 256.9 287 254.8 287H227.9C225.7 287 224 288.8 224 290.9V297.8C224 299.8 225.8 301.7 227.9 301.7Z"
        fill="#C6C6C6" />
    <path
        d="M303.4 339.4H223.5V295.5C223.5 272.7 242 254.4 264.7 254.4H299.9C301.8 254.4 303.3 255.9 303.3 257.8L303.4 339.4Z"
        fill="#9DD6FF" />
    <path d="M240.2 262.4H294.4V290.9H223.8C225 279.3 231.2 269.1 240.2 262.4Z" fill="#BBE2FF" />
    <path d="M298.3 274.5V303H223.6V295.4C223.6 287.8 225.7 280.6 229.3 274.4L298.3 274.5Z"
        fill="#9DD6FF" />
    <path d="M298.3 322.3H223.6V295.4C223.6 294.8 223.6 294.4 223.6 293.8H298.3V322.3Z"
        fill="#BBE2FF" />
    <path d="M298.2 310.8H223.5V330.3H298.2V310.8Z" fill="#9DD6FF" />
    <path d="M302.4 329.3H223.5V339.4H302.4V329.3Z" fill="#BBE2FF" />
    <path d="M301.7 254.2V303.4H259.1V296.7C259.1 273.4 278.2 254.3 301.7 254.2Z" fill="#BDE3FE" />
    <path d="M301.5 254.2V303.4H344.1V296.7C344 273.4 325 254.3 301.5 254.2Z" fill="#8CCFFF" />
    <path
        d="M327.3 262.8C337.6 270.6 344.3 282.9 344.3 296.8V298.9H259.1V296.8C259.1 282.7 266 270.2 276.6 262.5L303.1 276.3L327.3 262.8Z"
        fill="#DEF1FF" />
    <path
        d="M338.1 274.6C342.1 281.1 344.4 288.7 344.4 296.8V304.3H259.2V296.8C259.2 288.6 261.5 280.9 265.6 274.4L303.2 294L338.1 274.6Z"
        fill="#BDE3FE" />
    <path
        d="M259.2 293.8L303.2 304.8L344.2 293.8C344.3 294.8 344.3 295.8 344.3 296.8V339.4H259.1V296.8C259.1 295.8 259.2 294.8 259.2 293.8Z"
        fill="#DEF1FF" />
    <path d="M344.3 310.8H259.1V339.3H344.3V310.8Z" fill="#BDE3FE" />
    <path d="M344.3 329.3H259.1V339.4H344.3V329.3Z" fill="#DEF1FF" />
    <path
        d="M274.1 339.4H329.3V296.8C329.3 281.6 316.9 269.2 301.6 269.2C286.3 269.2 273.9 281.6 273.9 296.8L274.1 339.4Z"
        fill="white" />
    <path
        d="M170.3 317.7H197.2C199.4 317.7 201.1 315.9 201.1 313.8V306.9C201.1 304.7 199.3 303 197.2 303H170.3C168.1 303 166.4 304.8 166.4 306.9V313.8C166.4 315.8 168.1 317.7 170.3 317.7Z"
        fill="#BDE3FE" />
    <path
        d="M149.9 217.3H176.8C179 217.3 180.7 215.5 180.7 213.4V206.4C180.7 204.2 178.9 202.5 176.8 202.5H149.9C147.7 202.5 146 204.3 146 206.4V213.3C145.9 215.6 147.7 217.3 149.9 217.3Z"
        fill="#BDE3FE" />
    <path
        d="M185.4 217.3H212.3C214.5 217.3 216.2 215.5 216.2 213.4V206.4C216.2 204.2 214.4 202.5 212.3 202.5H185.4C183.2 202.5 181.5 204.3 181.5 206.4V213.3C181.4 215.6 183.2 217.3 185.4 217.3Z"
        fill="#F3FAFF" />
    <path
        d="M55.9 287.4V294.3C55.9 296.5 57.7 298.2 59.8 298.2H86.7C88.9 298.2 90.6 296.4 90.6 294.3V287.4C90.6 285.2 88.8 283.5 86.7 283.5H59.8C57.6 283.5 55.9 285.2 55.9 287.4Z"
        fill="#F3FAFF" />
    <path
        d="M91.9 287.4V294.3C91.9 296.5 93.7 298.2 95.8 298.2H122.7C124.9 298.2 126.6 296.4 126.6 294.3V287.4C126.6 285.2 124.8 283.5 122.7 283.5H95.8C93.6 283.5 91.9 285.2 91.9 287.4Z"
        fill="#BDE3FE" />
    <path
        d="M75.9 271.4V278.3C75.9 280.5 77.7 282.2 79.8 282.2H106.7C108.9 282.2 110.6 280.4 110.6 278.3V271.4C110.6 269.2 108.8 267.5 106.7 267.5H79.9C77.7 267.5 75.9 269.2 75.9 271.4Z"
        fill="#F3FAFF" />
    <path
        d="M118.1 334.4V341.3C118.1 343.5 119.9 345.2 122 345.2H148.9C151.1 345.2 152.8 343.4 152.8 341.3V334.4C152.8 332.2 151 330.5 148.9 330.5H122C119.8 330.5 118.1 332.2 118.1 334.4Z"
        fill="#F3FAFF" />
    <path
        d="M99.6 196.7H73.7C79.3 191.4 85.4 186.4 91.9 181.9H99.5C101.7 181.9 103.4 183.7 103.4 185.8V192.7C103.5 194.9 101.7 196.7 99.6 196.7Z"
        fill="#F3FAFF" />
    <path
        d="M69.4 250.6H96.3C98.5 250.6 100.2 248.8 100.2 246.7V239.8C100.2 237.6 98.4 235.9 96.3 235.9H69.4C67.2 235.9 65.5 237.7 65.5 239.8V246.7C65.5 248.9 67.2 250.6 69.4 250.6Z"
        fill="#BDE3FE" />
    <path
        d="M361.4 359H9.6C4.3 359 0 354.7 0 349.4V348.9C0 343.6 4.3 339.3 9.6 339.3H361.4C366.7 339.3 371 343.6 371 348.9V349.4C370.9 354.7 366.6 359 361.4 359Z"
        fill="#8CCFFF" />
    <path
        d="M69 711.2C103.2 711.2 132 717.5 131 699.1C131 692.4 103.2 687 69 687C34.8 687 7 692.4 7 699.1C7 715 34.8 711.2 69 711.2Z"
        fill="#8CCFFF" />
    <rect x="7" y="700" width="124" height="15" fill="#8CCFFF" />
    <path
        d="M69 727C103.2 727 131 721.6 131 714.9C131 708.2 103.2 702.8 69 702.8C34.8 702.8 7 708.2 7 714.9C7 721.6 34.8 727 69 727Z"
        fill="#BDE3FE" />
    <path fill-rule="evenodd" clip-rule="evenodd"
        d="M23.8 717.1C32.5 721.7 49.8 724.5 69 724.5C88.1001 724.5 105.5 721.7 114.2 717.1C115.1 716.6 115.7 715.8 115.7 714.9C115.7 714 115.1 713.2 114.2 712.7C105.5 708 88.1001 705.2 69 705.2C49.9 705.2 32.6 708.1 23.8 712.7C22.9 713.2 22.3 714 22.3 714.9C22.3 715.8 22.9 716.6 23.8 717.1ZM24 713C32.7 708.4 49.9 705.6 69 705.6C88.1001 705.6 105.3 708.5 114 713C114.8 713.4 115.3 714.1 115.3 714.9C115.3 715.7 114.8 716.4 114 716.8C105.3 721.4 88.1001 724.2 69 724.2C49.9 724.2 32.7 721.3 24 716.8C23.2 716.4 22.7 715.7 22.7 714.9C22.7 714.1 23.2 713.4 24 713Z"
        fill="#EBEFFC" />
    <path fill-rule="evenodd" clip-rule="evenodd"
        d="M41.1 717.2C47.3 719.8 57.8 721.3 69 721.3C80.2001 721.3 90.7 719.7 96.9 717.2C98.1 716.7 98.7001 715.9 98.7001 714.9C98.7001 713.9 98 713 96.9 712.6C90.7 710 80.3 708.5 69 708.5C57.7001 708.5 47.3 710.1 41.1 712.6C39.9 713.1 39.3 713.9 39.3 714.9C39.3 715.9 40 716.8 41.1 717.2ZM41.4 712.9C47.5 710.4 57.8 708.9 69 708.9C80.2001 708.9 90.5 710.4 96.6 712.9C97.5 713.3 98.1 714.1 98.1 714.9C98.1 715.7 97.5 716.5 96.6 716.9C90.5 719.4 80.2001 720.9 69 720.9C57.8 720.9 47.5 719.4 41.4 716.9C40.5 716.5 39.9 715.7 39.9 714.9C39.9 714.1 40.5 713.3 41.4 712.9Z"
        fill="#EBEFFC" />
    <path fill-rule="evenodd" clip-rule="evenodd"
        d="M55.1 717.4C58.8 718.4 63.8 718.9 69 718.9C74.2001 718.9 79.1 718.3 82.9 717.4C84.3 717 85.2001 716.1 85.2001 714.9C85.2001 713.7 84.3 712.7 82.9 712.4C79.2 711.4 74.1 710.9 69 710.9C63.9 710.9 58.9 711.5 55.1 712.4C53.7 712.8 52.8 713.7 52.8 714.9C52.8 716.1 53.7 717.1 55.1 717.4ZM55.2 712.8C58.9 711.8 63.8 711.3 69 711.3C74.2 711.3 79 711.8 82.8 712.8C84 713.1 84.8 713.9 84.8 714.9C84.8 715.8 84 716.7 82.8 717C79.1 718 74.1 718.5 69 718.5C63.9 718.5 58.9 717.9 55.2 717C54 716.7 53.2 715.9 53.2 714.9C53.2 714 54 713.1 55.2 712.8Z"
        fill="#EBEFFC" />
    <defs>
        <linearGradient id="paint0_linear" x1="1480.22" y1="29.9571" x2="1276.21" y2="29.9571"
            gradientUnits="userSpaceOnUse">
            <stop stop-color="white" stop-opacity="0.01" />
            <stop offset="0.7502" stop-color="#C7D2F9" />
        </linearGradient>
    </defs>
</svg>
    