<svg t="1688740285377" class="icon" viewBox="0 0 2740 1024" version="1.1"
    xmlns="http://www.w3.org/2000/svg" p-id="23617" width="200" height="200">
    <path
        d="M206.849221 310.059701c-5.353241 0-6.670138-2.67662-4.004225-6.670138l28.018862-36.02731c2.67662-4.004224 9.336052-6.670138 14.66788-6.670138H721.93804c5.353241 0 6.670138 4.004224 4.004224 8.008449l-22.69774 34.688999c-2.67662 4.004224-9.336052 8.008448-13.340276 8.008448l-483.07644-1.33831zM5.353241 432.830923c-5.353241 0-6.670138-2.67662-4.004224-6.670138l28.018861-36.027309c2.67662-4.004224 9.336052-6.670138 14.66788-6.670138H652.560041c5.353241 0 8.008448 4.004224 6.670138 8.008448l-10.674362 32.012379c-1.33831 5.353241-6.670138 8.008448-12.012672 8.008448L5.353241 432.830923z m322.939598 122.771222c-5.353241 0-6.670138-4.004224-4.004224-8.008448l18.68281-33.361396c2.67662-4.004224 8.008448-8.008448 13.340276-8.008448h266.891168c5.353241 0 8.008448 4.004224 8.008448 9.336052l-2.67662 32.012379c0 5.353241-5.353241 9.336052-9.336052 9.336052l-290.916512-1.33831z m1385.204563-269.567788L1489.271562 344.748701c-20.02112 5.353241-21.348724 6.670138-38.70393-13.340276-20.02112-22.697741-34.689-37.472685-62.718568-50.705896-84.067292-41.369844-165.479376-29.357172-241.538221 20.02112-90.748136 58.714344-137.449808 145.458256-136.122204 253.550893 1.33831 106.74362 74.73124 194.836548 180.157962 209.525841 90.748136 12.012672 166.80698-20.02112 226.870341-88.071516 12.012672-14.66788 22.697741-30.695482 36.02731-49.378292H1195.699842c-28.018862 0-34.689-17.3445-25.352948-40.042241 17.3445-41.369844 49.378292-110.75855 68.061102-145.458256 4.004224-8.008448 13.340276-21.348724 33.361396-21.348724h485.753061c-2.67662 36.02731-2.67662 72.05462-8.008448 108.092636-14.66788 96.079964-50.705896 184.15148-109.42024 261.559341-96.079964 126.76474-221.5171 205.51091-380.326338 226.87034-130.77967 17.3445-252.212582-8.008448-358.988321-88.071516C801.915456 853.199502 745.974091 754.442918 731.295505 631.682402c-17.3445-145.458256 25.352948-276.22722 113.435171-391.0007 94.75236-124.109532 220.189496-202.844996 373.6562-230.863859 125.437136-22.697741 245.542444-8.008448 353.635081 65.384482 70.727016 46.701672 121.432912 110.75855 154.815721 188.166411 8.008448 12.012672 2.67662 18.68281-13.340276 22.69774z"
        fill="#00ACD7" p-id="23618"></path>
    <path
        d="M2155.182585 1024c-121.432912-2.67662-232.202168-37.472685-325.616218-117.450101-78.735464-68.061102-128.113756-154.815721-144.10924-257.555116-24.025344-150.80079 17.3445-284.257081 108.092636-403.013373 97.428981-128.113756 214.846962-194.836548 373.656201-222.85541 136.122204-24.025344 264.235961-10.674362 380.326338 68.061102 105.426722 72.05462 170.811204 169.4836 188.166411 297.58665 22.697741 180.157962-29.357172 326.943822-153.466704 452.391665-88.071516 89.39912-196.164152 145.458256-320.273685 170.811204-36.02731 6.670138-72.05462 8.008448-106.743619 12.012673z m317.607771-539.124871c-1.33831-17.3445-1.33831-30.695482-4.004224-44.035758-24.025344-132.11798-145.458256-206.849221-272.233703-177.481342-124.109532 28.018862-204.1726 106.74362-233.529772 232.202169-24.025344 104.088412 26.691258 209.525841 122.771222 252.212582 73.39293 32.012379 146.78586 28.018862 217.523583-8.008448 105.426722-54.603055 162.802756-140.115722 169.4836-254.889203z"
        fill="#00ACD7" p-id="23619"></path>
</svg>