<svg t="1688740203591" class="icon" viewBox="0 0 1024 1024" version="1.1"
    xmlns="http://www.w3.org/2000/svg" p-id="22306" width="200" height="200">
    <path d="M512 512m-512 0a512 512 0 1 0 1024 0 512 512 0 1 0-1024 0Z" fill="#604431" p-id="22307"></path>
    <path
        d="M591.36 298.496c-35.84-44.544-67.584-69.632-87.552-115.712-10.752 40.96-40.96 48.128-67.584 81.92-43.008 56.832-96.256 171.008-81.92 278.016 8.704 64 32.256 115.712 64 158.72 19.456 26.624 37.376 44.544 56.832 60.416 25.088 19.456 26.624 28.672 26.624 90.624l17.92 5.12h2.048c0-23.04-5.12-53.248 1.536-76.8 8.704-25.088 44.544-40.96 60.416-60.416 21.504-26.624 43.008-58.88 55.296-94.208 44.544-124.928 8.704-227.84-40.96-315.392-1.024-3.072-3.072-8.704-6.656-12.288z"
        fill="#2AA515" p-id="22308"></path>
</svg>