<svg t="1688738069252" class="icon" viewBox="0 0 1024 1024" version="1.1"
    xmlns="http://www.w3.org/2000/svg" p-id="1512" width="200" height="200">
    <path
        d="M795.3408 341.0944c2.048-13.1072 3.8912-25.6 4.1984-39.424-32.9728-4.096-70.7584-3.1744-85.7088 18.2272-29.0816 41.472 27.648 143.2576 51.9168 186.6752 6.2464 11.1616 10.752 19.2512 12.8 24.2688 2.2528 5.5296 4.8128 10.5472 7.3728 15.1552 16.6912-35.4304 12.3904-71.3728 8.192-106.2912-2.048-17.3056-4.1984-35.1232-3.6864-52.3264 0.512-17.6128 2.7648-32.1536 4.9152-46.2848z m-27.7504-7.9872c-2.6624 2.8672-8.2944 7.68-16.0768 8.8064-1.024 0.1024-2.048 0.2048-2.9696 0.2048-11.3664 0-21.1968-8.9088-22.016-14.6432-0.9216-6.9632 10.3424-12.1856 22.1184-13.824 2.56-0.3072 5.12-0.512 7.5776-0.512 10.1376 0 16.7936 2.9696 17.5104 7.7824 0.3072 3.072-2.048 7.8848-6.144 12.1856zM651.4688 75.4688c20.7872-4.3008 49.2544-8.2944 81.2032-7.68 80.7936 1.7408 144.5888 31.9488 189.8496 89.8048 34.7136 44.3392-3.4816 246.0672-114.0736 420.0448-1.1264-1.4336-2.2528-2.7648-3.3792-4.1984-0.4096-0.6144-0.9216-1.1264-1.4336-1.7408 28.5696-47.2064 22.9376-93.9008 18.0224-135.2704-2.048-16.9984-3.9936-33.0752-3.4816-48.128 0.512-15.9744 2.6624-29.696 4.7104-42.9056 2.56-16.2816 5.12-33.1776 4.4032-53.1456 0.512-2.048 0.7168-4.5056 0.512-7.4752-1.8432-19.1488-23.6544-76.288-68.096-128-24.3712-28.2624-59.8016-60.0064-108.2368-81.3056zM345.7024 583.168c3.1744 3.2768 6.4512 6.4512 9.9328 9.3184-13.6192 14.6432-43.3152 46.8992-74.8544 84.8896-22.3232 26.8288-37.7856 21.7088-42.8032 20.0704-33.0752-11.0592-71.3728-80.896-105.1648-191.6928-29.2864-95.8464-46.3872-192.2048-47.8208-219.2384-4.3008-85.504 16.4864-144.9984 61.5424-177.0496 73.4208-52.1216 194.2528-20.8896 242.7904-5.12-0.7168 0.7168-1.4336 1.3312-2.1504 2.048-79.6672 80.384-77.7216 217.8048-77.5168 226.2016 0 3.2768 0.3072 7.7824 0.6144 14.1312 1.3312 23.1424 3.8912 66.1504-2.8672 114.7904-6.2464 45.3632 7.68 89.6 38.2976 121.6512z m445.0304 17.408c-15.7696 4.5056-44.1344 15.0528-41.472 67.584-2.048 26.3168-16.896 149.7088-24.3712 193.2288-9.9328 57.5488-31.1296 79.0528-90.7264 91.8528-61.7472 13.2096-83.6608-18.3296-98.0992-54.272-9.3184-23.2448-13.824-128.1024-10.6496-244.0192 0-1.536-0.2048-3.072-0.6144-4.4032-0.4096-2.6624-0.9216-5.4272-1.7408-8.192-4.8128-16.896-16.5888-30.9248-30.72-36.7616-4.4032-1.8432-11.0592-4.608-19.2512-4.608-3.072 0-6.0416 0.4096-8.9088 1.1264 2.6624-10.8544 7.168-23.1424 12.1856-36.352l2.048-5.632c2.3552-6.3488 5.3248-12.8 8.3968-19.7632 16.7936-37.2736 39.7312-88.3712 14.848-203.6736-9.3184-43.2128-40.5504-64.3072-87.8592-59.392-28.3648 2.9696-54.272 14.336-67.2768 20.8896-2.7648 1.4336-5.3248 2.7648-7.7824 4.096 3.584-43.52 17.2032-124.7232 68.1984-176.3328 32.1536-32.4608 74.9568-48.5376 127.1808-47.616 102.7072 1.6384 168.6528 54.3744 205.824 98.304 32.0512 37.888 49.3568 75.9808 56.32 96.5632-52.0192-5.3248-87.4496 5.0176-105.472 30.6176-39.0144 55.808 21.4016 164.1472 50.3808 216.2688 5.3248 9.5232 9.9328 17.8176 11.3664 21.2992 9.4208 22.9376 21.7088 38.1952 30.6176 49.3568 2.8672 3.584 5.5296 6.8608 7.5776 9.8304z m-294.4 49.3568c1.1264 3.9936 2.4576 11.5712-1.7408 17.5104-21.1968 29.696-50.4832 44.7488-86.8352 44.7488-11.9808 0-24.6784-1.6384-37.7856-4.9152-7.68-1.9456-14.5408-5.2224-18.6368-7.9872 3.3792-1.6384 9.4208-3.7888 19.8656-5.9392 50.4832-10.4448 58.2656-17.7152 75.264-39.3216 3.8912-4.9152 8.2944-10.5472 14.4384-17.408 4.608-5.2224 8.8064-7.7824 12.288-7.7824 2.4576 0 5.2224 1.024 8.6016 2.4576 6.144 2.56 12.0832 10.24 14.5408 18.6368z m434.688-17.3056c0.2048 0 0.4096-0.1024 0.6144-0.1024-7.68 7.2704-20.992 16.896-39.7312 25.6-16.1792 7.4752-43.1104 13.1072-68.7104 14.336-28.3648 1.3312-42.7008-3.1744-46.08-5.9392-1.536-32.6656 10.5472-36.1472 23.4496-39.7312 2.048-0.6144 3.9936-1.1264 5.9392-1.7408 1.2288 0.9216 2.4576 1.9456 3.8912 2.8672 22.7328 14.9504 63.2832 16.5888 120.6272 4.7104z m-480.768-76.6976l2.048-5.5296c2.6624-7.168 5.8368-14.1312 9.1136-21.504 16.0768-35.6352 35.9424-79.9744 13.0048-186.368-4.4032-20.5824-15.1552-32.4608-32.6656-36.5568-38.4-8.8064-92.3648 20.0704-103.936 30.4128 0.1024 2.3552 0.3072 5.3248 0.512 8.6016 1.4336 24.064 4.096 68.9152-3.072 120.32-5.12 36.7616 6.0416 72.6016 30.8224 98.4064 19.456 20.2752 44.9536 31.5392 71.2704 31.5392 2.7648-12.288 7.68-25.2928 12.9024-39.3216zM414.0032 340.992c-1.8432-2.3552-4.7104-7.0656-4.096-11.1616 0.8192-6.144 8.192-9.8304 19.7632-9.8304 2.56 0 5.2224 0.2048 7.8848 0.6144 12.4928 1.7408 25.2928 7.5776 24.064 16.4864-0.9216 6.656-11.5712 16.5888-24.2688 16.5888-1.1264 0-2.2528-0.1024-3.3792-0.2048-7.3728-1.024-14.848-5.7344-19.968-12.4928zM997.376 614.6048c-4.1984-18.8416-21.1968-40.7552-55.6032-40.7552-6.8608 0-14.336 0.8192-22.8352 2.56-16.2816 3.3792-30.8224 5.4272-43.3152 6.2464 43.8272-75.0592 79.0528-159.5392 99.4304-238.6944 18.944-73.216 33.1776-171.008-6.0416-221.0816-57.5488-73.728-141.824-112.64-243.712-112.64-57.4464 0-104.2432 12.8-118.4768 17.2032-22.4256-3.8912-46.4896-6.0416-71.68-6.4512h-5.0176c-45.2608 0-85.9136 10.24-120.6272 30.6176-31.6416-10.752-92.7744-27.9552-156.4672-27.9552-71.68 0-128.1024 21.0944-167.7312 62.7712-43.9296 46.1824-63.8976 114.9952-59.392 204.6976 1.8432 37.5808 23.552 150.016 54.5792 247.6032 47.9232 150.7328 100.7616 220.9792 166.0928 220.9792 20.48 0 39.936-7.168 57.856-21.2992 15.6672 17.1008 38.5024 24.8832 51.0976 27.9552 17.8176 4.4032 35.328 6.7584 52.1216 6.7584 22.4256 0 43.6224-3.8912 62.976-11.6736 0.1024 4.1984 0.2048 8.192 0.3072 11.776 0.2048 8.192 0.4096 16.1792 0.7168 23.6544 2.048 50.9952 5.5296 90.624 15.872 118.5792 0.512 1.4336 1.2288 3.6864 2.048 6.144 4.5056 13.9264 11.3664 34.816 27.136 53.8624 20.7872 25.088 50.2784 38.2976 85.504 38.2976 11.264 0 23.2448-1.3312 35.7376-3.9936 37.7856-8.0896 80.6912-20.48 112.0256-64.9216 29.2864-41.6768 43.52-104.0384 46.08-202.24l1.1264-9.6256 5.4272 0.4096c3.4816 0.2048 7.0656 0.2048 10.6496 0.2048 36.6592 0 77.312-7.8848 103.5264-20.0704 21.8112-10.24 92.0576-47.2064 80.5888-98.9184z m-93.696 68.8128c-22.528 10.4448-58.4704 17.1008-89.7024 17.1008-14.9504 0-28.7744-1.536-39.5264-4.9152-5.12 46.7968-15.872 133.9392-22.2208 170.496-11.776 68.3008-42.1888 99.328-112.3328 114.3808-11.9808 2.56-22.8352 3.6864-32.6656 3.6864-67.1744 0-88.4736-53.1456-97.1776-74.9568-10.6496-26.624-14.336-113.7664-13.6192-202.3424-24.1664 21.8112-54.3744 33.28-88.8832 33.28-14.2336 0-29.2864-1.9456-44.544-5.7344-4.4032-1.1264-43.3152-11.5712-42.8032-36.352 0.512-22.7328 32.8704-29.3888 45.1584-31.9488 42.9056-8.8064 45.6704-12.3904 58.9824-29.2864 2.6624-3.3792 5.8368-7.4752 9.728-11.9808 0-0.512-0.1024-1.024-0.1024-1.536-19.2512-0.512-38.0928-5.632-55.1936-14.848-11.5712 12.288-43.008 46.2848-76.6976 86.8352-20.2752 24.3712-39.7312 31.5392-55.6032 31.5392-6.4512 0-12.3904-1.2288-17.5104-2.8672-43.52-14.5408-84.992-85.1968-123.0848-209.92-28.9792-94.8224-47.3088-193.8432-48.8448-225.9968-4.8128-95.6416 19.8656-163.328 73.3184-201.216C226.304 18.8416 380.928 70.9632 414.72 83.5584c33.28-22.7328 73.4208-33.792 120.0128-33.0752 25.3952 0.4096 48.64 3.6864 70.0416 9.0112 10.1376-4.5056 62.5664-20.2752 124.416-19.6608 90.112 0.9216 164.5568 35.7376 215.3472 100.5568 34.2016 43.7248 11.6736 150.2208 0.3072 194.048-23.552 91.0336-67.072 188.6208-120.1152 269.312 7.9872 5.9392 32.4608 15.6672 100.5568 1.536 22.9376-4.7104 36.7616-0.512 41.0624 12.3904 8.3968 25.088-37.376 53.9648-62.6688 65.7408z"
        fill="#316691" p-id="1513"></path>
</svg>